<svg width="29" height="24" viewBox="0 0 29 24" fill="none" xmlns="http://www.w3.org/2000/svg">
<path fill-rule="evenodd" clip-rule="evenodd" d="M8.8966 23.4531C19.463 23.4531 25.2414 14.6052 25.2414 6.93291C25.2414 6.68149 25.2364 6.43131 25.225 6.18227C26.3465 5.3628 27.3216 4.34025 28.0908 3.17597C27.0614 3.63817 25.9537 3.94959 24.7917 4.09007C25.9777 3.37135 26.8884 2.2339 27.3178 0.878198C26.2077 1.54326 24.9787 2.02708 23.6702 2.28756C22.6219 1.15894 21.129 0.453125 19.4769 0.453125C16.3043 0.453125 13.7314 3.05348 13.7314 6.25891C13.7314 6.71466 13.7819 7.15773 13.8805 7.5828C9.10626 7.34021 4.87255 5.02965 2.03962 1.51643C1.54581 2.37427 1.26156 3.37135 1.26156 4.43477C1.26156 6.4492 2.27583 8.22748 3.81796 9.26781C2.8757 9.23849 1.99034 8.97677 1.21608 8.54151C1.21485 8.56573 1.21485 8.58996 1.21485 8.61543C1.21485 11.4278 3.19535 13.7754 5.82365 14.3078C5.34116 14.4405 4.83346 14.512 4.3093 14.512C3.93925 14.512 3.57928 14.475 3.2294 14.4073C3.96064 16.7141 6.08136 18.3928 8.59599 18.4401C6.62949 19.9974 4.15272 20.9256 1.46114 20.9256C0.997684 20.9256 0.540388 20.8987 0.0908203 20.8451C2.63322 22.4919 5.65184 23.4531 8.8966 23.4531Z" fill="white"/>
</svg>
