<svg width="71" height="74" viewBox="0 0 71 74" fill="none" xmlns="http://www.w3.org/2000/svg">
<path fill-rule="evenodd" clip-rule="evenodd" d="M70.4616 0.591009L70.4608 0.594119C71.2239 17.4643 66.3349 30.621 55.9398 39.7148C56.2637 41.1105 57.3328 47.0445 53.2854 51.2775C51.6677 52.9699 50.173 54.4738 48.843 55.7477C48.3773 56.199 47.7542 56.4514 47.1057 56.4514C46.9514 56.4513 46.7975 56.4374 46.6457 56.4098C45.8481 56.2694 45.1679 55.7513 44.8205 55.0197L41.5182 48.1662C38.7092 49.2367 35.7917 49.9972 32.8175 50.4343L32.5783 50.4616L20.1774 38.0934L20.2038 37.8537C20.635 34.8657 21.392 31.9338 22.4611 29.1105C21.5846 28.7347 19.7244 27.8449 15.591 25.8677L15.5841 25.8644C14.8542 25.5158 14.3356 24.8386 14.1892 24.043C14.0428 23.2475 14.2864 22.43 14.8444 21.8444C16.1066 20.5187 17.6066 19.0197 19.3024 17.3889C23.5249 13.3296 29.4614 14.3818 30.858 14.7016C39.9305 4.27124 53.0871 -0.656491 69.983 0.0700591C70.0051 0.0738344 70.0269 0.0791813 70.0482 0.0860591C70.2188 0.106222 70.3637 0.220702 70.4227 0.382119C70.4321 0.411252 70.4387 0.441184 70.4426 0.471539C70.4501 0.496425 70.4558 0.521825 70.4596 0.547539L70.4605 0.584539L70.4616 0.591009ZM54.9392 39.3204C54.9722 39.2526 55.0203 39.1933 55.0797 39.147C65.2894 30.3339 70.1255 17.5176 69.4733 1.05872C53.007 0.457579 40.2107 5.3263 31.4273 15.5609L31.4097 15.5801L31.4088 15.5812L31.4064 15.583C31.3615 15.6338 31.3068 15.6749 31.2454 15.7037C31.2296 15.7101 31.2134 15.7155 31.1969 15.72C31.1507 15.7376 31.102 15.748 31.0527 15.7509C31.0445 15.7513 31.0371 15.7561 31.0289 15.7561C31.0077 15.7537 30.9867 15.75 30.9661 15.7451C30.9433 15.7452 30.9206 15.7436 30.8981 15.7404C30.8331 15.7223 24.2877 13.9826 19.9957 18.1096C18.3102 19.7302 16.821 21.2189 15.569 22.5339C15.2315 22.8874 15.084 23.3814 15.1725 23.862C15.2609 24.3427 15.5745 24.7518 16.0157 24.9621C16.0157 24.9621 23.193 28.3957 23.2877 28.4406L23.7032 28.6369L23.5431 29.0681C22.4732 31.8672 21.6976 34.77 21.2286 37.7297L32.9391 49.4093C35.8973 48.932 38.7979 48.1481 41.5939 47.0705C42.049 46.964 42.0495 46.965 45.6748 54.4895L45.7213 54.5861C45.9331 55.0267 46.3432 55.339 46.8243 55.426C47.3053 55.513 47.7989 55.3641 48.1515 55.0256C49.4708 53.7619 50.9552 52.2682 52.5626 50.5861C56.6784 46.2819 54.9191 39.7428 54.901 39.6769C54.8925 39.6359 54.8895 39.594 54.8919 39.5522C54.8918 39.545 54.8909 39.5379 54.8899 39.5308C54.8887 39.5214 54.8874 39.5119 54.8882 39.5024C54.8936 39.4475 54.9082 39.3939 54.9314 39.3439C54.9348 39.3362 54.9354 39.3279 54.9392 39.3204Z" fill="black"/>
<path fill-rule="evenodd" clip-rule="evenodd" d="M39.4453 23.5938C39.4454 19.2875 42.9364 15.7967 47.2427 15.7969C51.5468 15.8021 55.0346 19.2901 55.0396 23.5942C55.0394 27.9005 51.5484 31.3912 47.2422 31.3911C42.936 31.391 39.4452 27.9 39.4453 23.5938ZM40.9628 26.1953C42.0149 28.7352 44.4935 30.3912 47.2427 30.3911C50.9947 30.3868 54.0352 27.3463 54.0396 23.5942C54.0396 20.845 52.3836 18.3664 49.8437 17.3143C47.3038 16.2622 44.3801 16.8437 42.4361 18.7877C40.4921 20.7317 39.9106 23.6553 40.9628 26.1953Z" fill="black"/>
<path d="M24.8204 52.771C24.5833 52.6292 24.2762 52.7064 24.1343 52.9434C23.9925 53.1804 24.0697 53.4876 24.3067 53.6294C26.1366 54.8125 27.2381 56.8459 27.2296 59.0249C27.1878 61.2296 26.2955 63.3328 24.7393 64.8951C23.1548 66.469 21.187 67.6022 19.0303 68.1827C18.0777 68.4595 17.0762 68.6577 16.1085 68.8497L15.3008 69.0118C11.7416 69.7416 8.24929 70.7661 4.85989 72.0748C4.72854 72.1256 4.59573 72.1832 4.46389 72.2467C4.02835 72.4596 3.51737 72.4519 3.08837 72.2261C2.71849 72.0355 2.46547 71.6758 2.41112 71.2632C2.14645 69.2828 2.22075 67.2719 2.63085 65.3164C3.28098 62.3683 4.43921 59.5559 6.0537 57.0049C6.81054 55.7652 6.83983 54.7286 6.13475 54.1617C5.80325 53.9292 5.41147 53.7977 5.00682 53.7832L1.77099 53.4131C1.68081 53.4053 1.59135 53.3906 1.50341 53.3691C1.50048 53.3603 1.47704 53.2749 1.5869 52.9873C2.6687 49.7358 4.93486 47.0106 7.93456 45.354C11.0737 43.8183 15.0059 44.3657 17.0786 46.6289C17.2653 46.832 17.5812 46.8456 17.7847 46.6592C17.9881 46.4727 18.002 46.1568 17.8159 45.9531C15.4165 43.334 11.0766 42.7036 7.49507 44.4556C4.26686 46.2227 1.82349 49.1419 0.652374 52.6309C0.42861 53.0718 0.461314 53.5994 0.737824 54.0093C0.982115 54.2543 1.31099 54.3964 1.65682 54.4063L4.89315 54.7764C5.1081 54.7811 5.31877 54.8373 5.5074 54.9405C5.8214 55.1929 5.55477 55.9034 5.20027 56.4835C3.52501 59.134 2.32382 62.0559 1.65047 65.1183C1.21829 67.1846 1.14067 69.3095 1.42093 71.4019C1.52086 72.1299 1.96572 72.7651 2.61575 73.1079C2.97741 73.3003 3.38092 73.4006 3.79056 73.3999C4.17377 73.4001 4.5521 73.3139 4.89749 73.1479C5.00491 73.0962 5.11234 73.0495 5.21976 73.0078C8.55736 71.7192 11.9963 70.7102 15.501 69.9912L16.3028 69.8306C17.292 69.6348 18.315 69.4316 19.3096 69.1426C21.6345 68.5133 23.7548 67.2878 25.4605 65.5874C27.1968 63.8367 28.189 61.4825 28.2295 59.0171C28.2317 56.4902 26.9468 54.1361 24.8204 52.771Z" fill="black"/>
</svg>
