<svg width="76" height="76" viewBox="0 0 76 76" fill="none" xmlns="http://www.w3.org/2000/svg">
<path fill-rule="evenodd" clip-rule="evenodd" d="M65.6325 29.9151L74.373 19.664C74.9079 19.0729 75.1288 18.2622 74.9676 17.4815C74.8065 16.7008 74.2827 16.0438 73.5576 15.7128L48.3271 3.24068C48.0795 3.11825 47.7796 3.21968 47.6572 3.46724C47.5347 3.71479 47.6362 4.01473 47.8837 4.13716L73.1318 16.6176C73.5728 16.8148 73.8918 17.2123 73.9888 17.6855C74.0858 18.1587 73.9489 18.6496 73.621 19.0043L64.7616 29.3947L52.8447 22.4487C52.606 22.3096 52.2997 22.3902 52.1606 22.6289C52.0214 22.8676 52.1021 23.1738 52.3408 23.313L63.8151 30.001L37.664 42.4907L11.5355 30.0114L22.5293 23.9047C22.6867 23.8185 22.7859 23.6546 22.7891 23.4751C22.7924 23.2957 22.6992 23.1282 22.545 23.0364C22.3908 22.9445 22.1992 22.9424 22.0429 23.0307L10.8087 29.2709L2.08686 19.1103C1.75802 18.7551 1.62064 18.2631 1.71786 17.7888C1.81509 17.3146 2.13499 16.9164 2.57709 16.7192L27.1347 4.13375C27.2947 4.05272 27.3991 3.89221 27.4082 3.71309C27.4174 3.53396 27.3299 3.36366 27.179 3.26676C27.028 3.16986 26.8368 3.16121 26.6777 3.2441L2.13861 15.8203C1.41524 16.155 0.89471 16.8145 0.737111 17.5958C0.579512 18.3772 0.803714 19.1868 1.34076 19.7758L9.87946 29.7247L1.28705 37.8208C0.704608 38.3691 0.41986 39.1632 0.521094 39.9567C0.622328 40.7503 1.09731 41.4474 1.79877 41.832L9.94525 46.3572V60.8164C9.94819 61.7785 10.5003 62.6545 11.3671 63.0722L36.5869 75.1171C37.2681 75.444 38.0609 75.444 38.7421 75.1171L63.9619 63.0722C64.8287 62.6545 65.3808 61.7785 65.3837 60.8164V46.1504L73.4237 41.7553C74.1265 41.3716 74.6029 40.6744 74.7049 39.8802C74.807 39.086 74.5223 38.291 73.9394 37.7421L65.6325 29.9151ZM1.51361 39.832C1.44953 39.355 1.62062 38.8765 1.97261 38.5483L10.4213 30.5877L36.6235 43.1021L26.1162 53.001C25.6454 53.4467 24.9409 53.538 24.372 53.2271L2.28119 40.956C1.85837 40.7278 1.5723 40.3089 1.51361 39.832ZM10.9453 60.8164C10.947 61.3938 11.2785 61.9195 11.7988 62.1699L37.0185 74.2148C37.0661 74.2342 37.1147 74.2511 37.164 74.2654V43.9663L26.8017 53.7285C26.0152 54.4721 24.8387 54.6234 23.8896 54.103L10.9453 46.9127V60.8164ZM64.3838 60.8164C64.3821 61.3938 64.0506 61.9195 63.5303 62.1699L38.3105 74.2148C38.2626 74.2343 38.2137 74.2514 38.164 74.2658V44.5358L47.9218 53.7285C48.7088 54.4728 49.8862 54.6241 50.8359 54.103L64.3837 46.697L64.3838 60.8164ZM72.9443 40.8774C73.3678 40.649 73.6546 40.2298 73.7139 39.7524C73.777 39.2757 73.6057 38.798 73.2539 38.4702L64.895 30.5937L38.3034 43.2937L48.6074 53.0009C49.0799 53.4474 49.7866 53.5379 50.3564 53.225L72.9443 40.8774Z" fill="black"/>
<path d="M36.3118 25.7559C36.8971 26.3242 37.8282 26.3242 38.4134 25.7559L46.5755 17.75C46.7713 17.5561 46.7735 17.2405 46.5804 17.0439C46.3873 16.8473 46.0717 16.8439 45.8743 17.0361L37.8626 24.8945V0.5C37.8626 0.223858 37.6388 0 37.3626 0C37.0865 0 36.8626 0.223858 36.8626 0.5V24.8955L28.8499 17.0361C28.7224 16.9109 28.5378 16.8632 28.3655 16.911C28.1933 16.9588 28.0597 17.0949 28.0149 17.2679C27.9702 17.441 28.0212 17.6247 28.1488 17.75L36.3118 25.7559Z" fill="black"/>
</svg>
